<svg width="12" height="29" viewBox="0 0 12 29" fill="none" xmlns="http://www.w3.org/2000/svg">
<path d="M5.77719 0.79129C5.61384 0.882334 5.39823 1.07743 5.28715 1.227L5.09114 1.50664L5.05847 8.75769L5.0258 16.0087L4.47696 16.1713C3.10485 16.5615 2.07904 17.3809 1.50406 18.532C1.00096 19.553 0.916016 19.9757 0.916016 21.4584C0.916016 22.5444 0.935617 22.8046 1.05323 23.2793C1.69354 25.796 3.11138 27.5129 5.09114 28.1697C5.47663 28.2932 5.68572 28.3193 6.43057 28.3193C7.17543 28.3193 7.38451 28.2932 7.77001 28.1697C9.74976 27.5129 11.1676 25.796 11.8079 23.2793C11.9255 22.8046 11.9451 22.5444 11.9451 21.4584C11.9451 20.3659 11.9255 20.1187 11.8014 19.67C11.3113 17.8686 10.1418 16.6721 8.38419 16.1713L7.83535 16.0087L7.80268 8.76419L7.77001 1.51314L7.5936 1.25952C7.30611 0.856319 7.00555 0.687239 6.50245 0.661226C6.14308 0.641716 6.01894 0.667728 5.77719 0.79129ZM7.71774 18.8571C8.44953 19.1042 8.9265 19.67 9.10945 20.4894C9.23359 21.0552 9.16172 22.4729 8.97877 23.0517C8.63901 24.1182 7.99216 25.0156 7.29304 25.3668C6.85527 25.5879 6.01241 25.5944 5.58117 25.3733C4.83632 24.9896 4.2352 24.1572 3.86931 23.0192C3.73863 22.59 3.71903 22.4014 3.71903 21.4584C3.71903 20.4114 3.72557 20.3789 3.90851 19.9757C4.2352 19.2733 4.90166 18.8181 5.77719 18.7011C5.77719 18.7011 7.31264 18.7271 7.71774 18.8571Z" fill="white"/>
</svg>
