<svg width="12" height="29" viewBox="0 0 12 29" fill="none" xmlns="http://www.w3.org/2000/svg">
<path d="M1.23293 0.791288C1.06958 0.882334 0.853965 1.07743 0.74289 1.227L0.546875 1.50664V4.99234V8.48455L0.716755 8.92027C1.33094 10.4875 2.65077 11.528 4.23849 11.6906L4.66319 11.7361L4.69586 19.605L4.72853 27.4738L4.87227 27.708C4.95721 27.838 5.1467 28.0266 5.29697 28.1307C5.53872 28.2998 5.62366 28.3193 6.06797 28.3193C6.50573 28.3193 6.59721 28.2998 6.82589 28.1437C6.9631 28.0461 7.15258 27.8575 7.24406 27.721L7.4074 27.4803L7.44007 19.6115L7.47274 11.7361L7.89744 11.6906C9.52436 11.528 10.9487 10.364 11.4453 8.80971C11.5891 8.36099 11.5891 8.28946 11.5891 4.93382V1.51314L11.4126 1.25952C11.1252 0.856319 10.8246 0.687237 10.3215 0.661224C9.78572 0.635212 9.40022 0.810799 9.1062 1.227L8.91018 1.50664L8.87751 3.13894L8.84485 4.77774H8.15879H7.47274L7.44007 3.14544C7.4074 1.53915 7.4074 1.51314 7.24406 1.27903C6.96964 0.869326 6.63641 0.687237 6.13984 0.661224C5.60406 0.635212 5.21857 0.810799 4.92454 1.227L4.72853 1.50664L4.69586 3.13894L4.66319 4.77774H3.97714H3.29109L3.25842 3.14544L3.22575 1.51314L3.04933 1.25952C2.76185 0.856319 2.46129 0.687237 1.95818 0.661224C1.59882 0.641716 1.47468 0.667728 1.23293 0.791288ZM8.81218 7.73669C8.81218 8.13338 8.49202 8.56909 8.02812 8.81622C7.81903 8.92677 7.63609 8.93978 6.06797 8.93978C4.42144 8.93978 4.32343 8.93327 4.07515 8.79671C3.63085 8.56259 3.32376 8.12688 3.32376 7.73669V7.54159H6.06797H8.81218V7.73669Z" fill="white"/>
</svg>
