<svg width="9" height="29" viewBox="0 0 9 29" fill="none" xmlns="http://www.w3.org/2000/svg">
<path d="M6.37477 0.765276C5.53844 1.20099 4.24474 2.38457 3.44761 3.43158C1.46133 6.06537 0.304839 9.78519 0.0369518 14.435C-0.0610557 16.1388 -0.0153189 16.3924 0.435516 16.8411C0.873283 17.2769 0.990892 17.2964 3.47375 17.2964H5.60378V22.3233V27.3568L5.75406 27.6299C5.83246 27.786 6.02848 28.0006 6.18529 28.1177C6.44011 28.2998 6.50545 28.3193 6.96935 28.3193C7.41365 28.3193 7.50513 28.2998 7.73381 28.1437C7.87102 28.0461 8.0605 27.8575 8.15198 27.721L8.31532 27.4803V14.5V1.51314L8.13891 1.25952C7.85142 0.849817 7.55086 0.687237 7.04776 0.661224C6.72107 0.648218 6.55772 0.667728 6.37477 0.765276ZM5.60378 9.88274V14.5H4.21861H2.83997L2.8857 13.8302C3.00331 12.0418 3.44108 9.88274 4.00952 8.28946C4.38849 7.23594 5.40776 5.26548 5.57111 5.26548C5.59071 5.26548 5.60378 7.33999 5.60378 9.88274Z" fill="white"/>
</svg>
